<svg width="178" height="204" xmlns="http://www.w3.org/2000/svg" xmlns:xlink="http://www.w3.org/1999/xlink" overflow="hidden"><defs><clipPath id="clip0"><path d="M179 211 357 211 357 415 179 415Z" fill-rule="evenodd" clip-rule="evenodd"/></clipPath></defs><g clip-path="url(#clip0)" transform="translate(-179 -211)"><path d="M184 244.001C184 228.536 196.536 216 212.001 216L323.999 216C339.464 216 352 228.536 352 244.001L352 381.999C352 397.464 339.464 410 323.999 410L212.001 410C196.536 410 184 397.464 184 381.999Z" stroke="#616161" stroke-width="8" stroke-linejoin="round" stroke-miterlimit="10" fill="#FFFFFF" fill-rule="evenodd"/><path d="M208 264 328 264" stroke="#616161" stroke-width="8" stroke-linejoin="round" stroke-miterlimit="10" fill="none" fill-rule="evenodd"/><path d="M208 296 328 296" stroke="#616161" stroke-width="8" stroke-linejoin="round" stroke-miterlimit="10" fill="none" fill-rule="evenodd"/><path d="M208 328 328 328" stroke="#616161" stroke-width="8" stroke-linejoin="round" stroke-miterlimit="10" fill="none" fill-rule="evenodd"/><path d="M208 360 328 360" stroke="#616161" stroke-width="8" stroke-linejoin="round" stroke-miterlimit="10" fill="none" fill-rule="evenodd"/></g></svg>