<svg width="367" height="298" xmlns="http://www.w3.org/2000/svg" xmlns:xlink="http://www.w3.org/1999/xlink" overflow="hidden"><defs><clipPath id="clip0"><path d="M274 215 641 215 641 513 274 513Z" fill-rule="evenodd" clip-rule="evenodd"/></clipPath><clipPath id="clip1"><path d="M366 264 640 264 640 440 366 440Z" fill-rule="evenodd" clip-rule="evenodd"/></clipPath><clipPath id="clip2"><path d="M366 264 640 264 640 440 366 440Z" fill-rule="evenodd" clip-rule="evenodd"/></clipPath><clipPath id="clip3"><path d="M275 216 432 216 432 512 275 512Z" fill-rule="evenodd" clip-rule="evenodd"/></clipPath><clipPath id="clip4"><path d="M275 216 432 216 432 512 275 512Z" fill-rule="evenodd" clip-rule="evenodd"/></clipPath></defs><g clip-path="url(#clip0)" transform="translate(-274 -215)"><g clip-path="url(#clip1)"><g clip-path="url(#clip2)"><path d="M-160.699-402.773C-160.699-399.695-162.408-395.934-164.118-394.909-171.64-390.122-185.316-357.298-185.316-343.964-185.316-336.1-187.026-311.14-189.077-288.232-191.471-257.802-193.522-246.177-196.941-246.177-199.335-246.177-202.07-247.203-202.754-248.912-204.805-251.989-209.25-304.986-209.934-336.784-210.276-355.931-212.327-364.137-220.191-378.839-225.662-388.412-231.475-396.618-233.184-396.618-234.894-396.618-235.236-398.328-234.21-400.037-230.791-405.508-222.927-397.986-215.063-382.6-208.566-369.265-198.651-359.692-202.754-370.291-205.831-378.155-202.07-386.361-195.916-386.361-191.813-386.361-191.129-383.967-192.838-376.103-195.232-362.427-190.103-363.111-183.265-377.129-175.401-393.541-161.041-409.953-160.699-402.773ZM-198.651-286.522C-197.625-251.989-194.89-252.673-194.89-287.206-194.89-302.934-195.916-314.559-197.283-313.534-198.309-312.166-198.993-300.199-198.651-286.522Z" fill="#FFFFFF" transform="matrix(-1.00022 -0 -0 1 117.943 685.304)"/><path d="M-330.629-358.324C-329.261-342.596-328.236-319.004-328.236-305.67-328.236-288.574-326.868-280.026-323.107-276.949-313.534-269.085-310.456-276.607-312.166-302.592-313.875-326.868-313.875-327.552-305.67-329.603-281.052-335.758-256.776-296.096-272.162-274.214-279.684-263.272-289.6-264.64-297.464-277.975-303.276-287.206-304.302-287.89-304.302-281.736-304.302-270.794-313.192-264.64-320.372-270.453-324.817-274.214-326.184-274.214-327.21-271.136-329.603-263.956-335.074-266.008-335.074-273.872-335.074-294.044-357.298-334.39-364.478-327.21-367.898-324.133-355.931-300.883-349.776-298.489-342.938-295.754-344.306-288.916-354.221-277.291-366.53-262.589-377.129-263.272-387.728-279.684-392.515-286.522-397.302-296.438-398.328-301.908-401.405-313.875-405.508-313.534-412.004-301.225-416.791-291.309-416.791-290.967-407.217-288.916-387.045-284.471-383.967-266.692-403.115-266.692-409.953-266.692-415.423-269.769-420.552-275.923-430.126-287.89-427.39-299.515-412.004-313.192-405.508-319.004-400.037-327.21-400.037-331.313-400.037-340.545-394.567-340.545-389.438-330.971-386.361-325.159-386.361-322.765-391.148-319.688-395.934-315.927-395.934-313.875-391.831-299.173-387.045-283.787-378.155-270.111-372.342-270.111-370.975-270.111-366.872-274.897-363.111-281.052L-355.931-291.993-366.188-303.276C-371.659-309.772-376.103-318.662-376.103-323.107-376.103-330.287-374.394-331.655-366.53-331.655-355.931-331.655-349.434-325.842-340.886-309.431-334.048-296.78-334.048-294.728-340.203-343.622-342.938-366.188-345.331-384.993-345.331-385.677-345.331-386.019-342.596-386.361-338.835-386.361-333.364-386.361-332.339-382.6-330.629-358.324ZM-306.011-321.397C-307.037-319.688-306.695-317.978-304.986-317.978-303.276-317.978-300.541-310.798-299.173-301.908-296.78-283.787-288.916-268.743-283.787-271.82-278.658-274.897-279.684-299.515-285.155-312.85-290.283-324.817-301.225-329.261-306.011-321.397ZM-417.133-285.155C-417.133-279-408.927-270.111-403.456-270.111-394.225-270.111-394.909-280.026-404.482-283.787-413.714-287.548-417.133-287.89-417.133-285.155Z" fill="#FFFFFF" transform="matrix(-1.00022 -0 -0 1 117.943 685.304)"/><path d="M-454.743-325.842C-442.776-317.636-438.331-311.14-435.938-297.806-430.809-270.111-451.324-255.408-465.001-277.975-470.813-287.206-471.839-287.89-471.839-281.736-471.839-269.427-480.387-264.982-490.644-271.478-495.431-274.556-499.192-279-499.192-281.052-499.192-283.103-496.115-282.078-492.012-278.317-481.754-269.085-478.335-276.949-480.387-304.644-481.754-325.842-481.412-327.552-474.232-329.603-463.975-332.339-464.317-332.339-454.743-325.842ZM-473.548-321.397C-474.574-319.688-474.232-317.978-472.523-317.978-470.813-317.978-468.078-310.798-466.71-301.908-464.317-283.787-456.453-268.743-451.324-271.82-446.195-274.897-447.221-299.515-452.692-312.85-457.82-324.817-468.762-329.261-473.548-321.397Z" fill="#FFFFFF" transform="matrix(-1.00022 -0 -0 1 117.943 685.304)"/></g></g><g clip-path="url(#clip3)"><g clip-path="url(#clip4)"><path d="M-242.571-607.975C-242.571-603.33-245.151-597.653-247.732-596.105-259.086-588.879-279.731-539.333-279.731-519.205-279.731-507.334-282.311-469.658-285.408-435.079-289.021-389.146-292.117-371.598-297.278-371.598-300.891-371.598-305.02-373.146-306.052-375.727-309.149-380.372-315.858-460.368-316.89-508.367-317.407-537.269-320.503-549.655-332.374-571.848-340.631-586.299-349.405-598.685-351.986-598.685-354.566-598.685-355.082-601.266-353.534-603.847-348.373-612.104-336.503-600.75-324.632-577.525-314.826-557.397-299.859-542.946-306.052-558.945-310.697-570.816-305.02-583.202-295.73-583.202-289.537-583.202-288.504-579.589-291.085-567.719-294.698-547.075-286.956-548.107-276.634-569.267-264.763-594.04-243.087-618.814-242.571-607.975ZM-299.859-432.499C-298.311-380.372-294.182-381.404-294.182-433.531-294.182-457.272-295.73-474.819-297.794-473.271-299.343-471.207-300.375-453.143-299.859-432.499Z" fill="#FFFFFF" transform="matrix(-1.00005 -0 -0 1 57.6299 855.465)"/><path d="M-499.077-540.881C-497.012-517.14-495.464-481.529-495.464-461.401-495.464-435.595-493.399-422.693-487.722-418.048-473.271-406.177-468.626-417.531-471.207-456.756-473.787-493.399-473.787-494.432-461.401-497.528-424.241-506.818-387.597-446.95-410.822-413.919-422.176-397.403-437.144-399.468-449.014-419.596-457.788-433.531-459.336-434.563-459.336-425.273-459.336-408.758-472.755-399.468-483.593-408.242-490.303-413.919-492.367-413.919-493.915-409.274-497.528-398.435-505.786-401.532-505.786-413.403-505.786-443.853-539.333-504.754-550.171-493.915-555.332-489.271-537.269-454.175-527.979-450.562-517.656-446.434-519.721-436.111-534.688-418.564-553.268-396.371-569.267-397.403-585.267-422.176-592.492-432.499-599.718-447.466-601.266-455.724-605.911-473.787-612.104-473.271-621.91-454.691-629.136-439.724-629.136-439.208-614.685-436.111-584.234-429.402-579.589-402.564-608.492-402.564-618.814-402.564-627.071-407.209-634.813-416.499-649.264-434.563-645.135-452.111-621.91-472.755-612.104-481.529-603.847-493.915-603.847-500.109-603.847-514.044-595.589-514.044-587.847-499.593-583.202-490.819-583.202-487.206-590.428-482.561-597.653-476.884-597.653-473.787-591.46-451.595-584.234-428.37-570.816-407.725-562.042-407.725-559.977-407.725-553.784-414.951-548.107-424.241L-537.269-440.756-552.752-457.788C-561.01-467.594-567.719-481.013-567.719-487.722-567.719-498.56-565.138-500.625-553.268-500.625-537.269-500.625-527.463-491.851-514.56-467.078-504.238-447.982-504.238-444.885-513.528-518.689-517.656-552.752-521.269-581.138-521.269-582.17-521.269-582.686-517.14-583.202-511.463-583.202-503.205-583.202-501.657-577.525-499.077-540.881ZM-461.917-485.142C-463.465-482.561-462.949-479.981-460.368-479.981-457.788-479.981-453.659-469.142-451.595-455.724-447.982-428.37-436.111-405.661-428.37-410.306-420.628-414.951-422.176-452.111-430.434-472.239-438.176-490.303-454.691-497.012-461.917-485.142ZM-629.652-430.434C-629.652-421.144-617.265-407.725-609.008-407.725-595.073-407.725-596.105-422.693-610.556-428.37-624.491-434.047-629.652-434.563-629.652-430.434Z" fill="#FFFFFF" transform="matrix(-1.00005 -0 -0 1 57.6299 855.465)"/><path d="M-686.424-491.851C-668.36-479.464-661.651-469.658-658.038-449.53-650.296-407.725-681.263-385.533-701.907-419.596-710.681-433.531-712.229-434.563-712.229-425.273-712.229-406.693-725.132-399.984-740.615-409.79-747.841-414.435-753.518-421.144-753.518-424.241-753.518-427.338-748.873-425.789-742.68-420.112-727.196-406.177-722.035-418.048-725.132-459.852-727.196-491.851-726.68-494.432-715.842-497.528-700.359-501.657-700.875-501.657-686.424-491.851ZM-714.81-485.142C-716.358-482.561-715.842-479.981-713.261-479.981-710.681-479.981-706.552-469.142-704.488-455.724-700.875-428.37-689.004-405.661-681.263-410.306-673.521-414.951-675.069-452.111-683.327-472.239-691.069-490.303-707.584-497.012-714.81-485.142Z" fill="#FFFFFF" transform="matrix(-1.00005 -0 -0 1 57.6299 855.465)"/></g></g></g></svg>