<svg width="974" height="426" xmlns="http://www.w3.org/2000/svg" xmlns:xlink="http://www.w3.org/1999/xlink" overflow="hidden"><defs><clipPath id="clip0"><path d="M5 103 979 103 979 529 5 529Z" fill-rule="evenodd" clip-rule="evenodd"/></clipPath></defs><g clip-path="url(#clip0)" transform="translate(-5 -103)"><path d="M144 176C144 167.164 151.164 160 160 160L748 160C756.836 160 764 167.164 764 176L764 240C764 248.836 756.836 256 748 256L160 256C151.164 256 144 248.836 144 240Z" fill="#558ED5" fill-rule="evenodd"/><text fill="#151515" font-family="Architects Daughter,Architects Daughter_MSFontService,sans-serif" font-style="oblique" font-weight="400" font-size="19" transform="translate(418.916 212)">yaksi<tspan x="54.1667" y="0">_</tspan><tspan font-weight="700" x="-401.749" y="1">Frontend</tspan></text><path d="M2-4.03796e-06 2.00008 40-1.99992 40-2 4.03796e-06ZM8.07591e-05 40 10.0001 32 0.000104987 52-9.99994 32Z" fill="#151515" transform="matrix(1 0 0 -1 388 176)"/><text fill="#151515" font-family="Architects Daughter,Architects Daughter_MSFontService,sans-serif" font-style="oblique" font-weight="400" font-size="19" transform="translate(412.75 140)">yaksa_</text><path d="M2.62467e-06-2 4-1.99999 4 2.00001-2.62467e-06 2ZM8-1.99999 12-1.99998 12 2.00002 8 2.00001ZM16-1.99998 20-1.99997 20 2.00003 16 2.00002ZM24-1.99997 28-1.99996 28 2.00004 24 2.00003ZM32-1.99996 36-1.99995 36 2.00005 32 2.00004ZM40-1.99995 44-1.99994 44 2.00006 40 2.00005ZM48-1.99994 52-1.99993 52 2.00007 48 2.00006ZM56-1.99993 60-1.99992 60 2.00008 56 2.00007ZM64-1.99992 68-1.99991 68 2.00009 64 2.00008ZM68 8.92388e-05 60-9.99992 80 0.000104987 60 10.0001Z" fill="#151515" transform="matrix(-1 -8.74228e-08 -8.74228e-08 1 392 211)"/><path d="M508 209 512 209 512 213 508 213ZM516 209 520 209 520 213 516 213ZM524 209 528 209 528 213 524 213ZM532 209 536 209 536 213 532 213ZM540 209 544 209 544 213 540 213ZM548 209 552 209 552 213 548 213ZM556 209 560 209 560 213 556 213ZM564 209 568 209 568 213 564 213ZM572 209 576 209 576 213 572 213ZM580 209 580 209 580 213 580 213ZM580 211 572 201 592 211 572 221Z" fill="#151515"/><path d="M144 307C144 298.164 151.164 291 160 291L748 291C756.836 291 764 298.164 764 307L764 371C764 379.836 756.836 387 748 387L160 387C151.164 387 144 379.836 144 371Z" fill="#E8CD7E" fill-rule="evenodd"/><text fill="#151515" font-family="Architects Daughter,Architects Daughter_MSFontService,sans-serif" font-style="oblique" font-weight="400" font-size="19" transform="translate(406.584 344)">yaksuri<tspan x="78.8333" y="0">_</tspan><tspan font-weight="700" x="-387.747" y="-11">Backend </tspan><tspan font-weight="700" x="-362.914" y="11">Glue</tspan></text><path d="M2-4.03796e-06 2.00008 40-1.99992 40-2 4.03796e-06ZM8.07591e-05 40 10.0001 32 0.000104987 52-9.99994 32Z" fill="#151515" transform="matrix(1 0 0 -1 389 311)"/><text fill="#151515" font-family="Architects Daughter,Architects Daughter_MSFontService,sans-serif" font-style="oblique" font-weight="400" font-size="19" transform="translate(408.254 278)">yaksur<tspan x="75.3333" y="0">_</tspan></text><path d="M2.62467e-06-2 4-1.99999 4 2.00001-2.62467e-06 2ZM8-1.99999 12-1.99998 12 2.00002 8 2.00001ZM16-1.99998 20-1.99997 20 2.00003 16 2.00002ZM24-1.99997 28-1.99996 28 2.00004 24 2.00003ZM32-1.99996 36-1.99995 36 2.00005 32 2.00004ZM40-1.99995 44-1.99994 44 2.00006 40 2.00005ZM48-1.99994 52-1.99993 52 2.00007 48 2.00006ZM56-1.99993 60-1.99992 60 2.00008 56 2.00007ZM64-1.99992 68-1.99991 68 2.00009 64 2.00008ZM68 8.92388e-05 60-9.99992 80 0.000104987 60 10.0001Z" fill="#151515" transform="matrix(-1 -8.74228e-08 -8.74228e-08 1 392 342)"/><path d="M516 340 520 340 520 344 516 344ZM524 340 528 340 528 344 524 344ZM532 340 536 340 536 344 532 344ZM540 340 544 340 544 344 540 344ZM548 340 552 340 552 344 548 344ZM556 340 560 340 560 344 556 344ZM564 340 568 340 568 344 564 344ZM572 340 576 340 576 344 572 344ZM580 340 584 340 584 344 580 344ZM588 340 588 340 588 344 588 344ZM588 342 580 332 600 342 580 352Z" fill="#151515"/><path d="M136 448C136 439.164 143.164 432 152 432L256 432C264.836 432 272 439.164 272 448L272 512C272 520.836 264.836 528 256 528L152 528C143.164 528 136 520.836 136 512Z" fill="#E59FA6" fill-rule="evenodd"/><text fill="#151515" font-family="Architects Daughter,Architects Daughter_MSFontService,sans-serif" font-style="oblique" font-weight="400" font-size="19" transform="translate(156.823 474)">yaksuri<tspan x="78.8333" y="0">_</tspan><tspan x="19.5" y="22">seqi</tspan><tspan x="59.3333" y="22">_</tspan></text><path d="M2-4.03796e-06 2.00008 40-1.99992 40-2 4.03796e-06ZM8.07591e-05 40 10.0001 32 0.000104987 52-9.99994 32Z" fill="#151515" transform="matrix(1 0 0 -1 200 448)"/><text fill="#151515" font-family="Architects Daughter,Architects Daughter_MSFontService,sans-serif" font-style="oblique" font-weight="400" font-size="19" transform="translate(212.537 420)">yaksuri_seq</text><path d="M304 448C304 439.164 311.164 432 320 432L424 432C432.836 432 440 439.164 440 448L440 512C440 520.836 432.836 528 424 528L320 528C311.164 528 304 520.836 304 512Z" fill="#D3FF7D" fill-rule="evenodd"/><text fill="#151515" font-family="Architects Daughter,Architects Daughter_MSFontService,sans-serif" font-style="oblique" font-weight="400" font-size="19" transform="translate(324.823 474)">yaksuri<tspan x="78.8333" y="0">_</tspan><tspan x="12.4133" y="22">cudai</tspan>_</text><path d="M2-4.03796e-06 2.00008 40-1.99992 40-2 4.03796e-06ZM8.07591e-05 40 10.0001 32 0.000104987 52-9.99994 32Z" fill="#151515" transform="matrix(1 0 0 -1 360 448)"/><text fill="#151515" font-family="Architects Daughter,Architects Daughter_MSFontService,sans-serif" font-style="oblique" font-weight="400" font-size="19" transform="translate(373.794 420)">yaksuri_cuda</text><path d="M472 448C472 439.164 479.164 432 488 432L592 432C600.836 432 608 439.164 608 448L608 512C608 520.836 600.836 528 592 528L488 528C479.164 528 472 520.836 472 512Z" fill="#D8CBD8" fill-rule="evenodd"/><text fill="#151515" font-family="Architects Daughter,Architects Daughter_MSFontService,sans-serif" font-style="oblique" font-weight="400" font-size="19" transform="translate(492.584 474)">yaksuri<tspan x="78.8333" y="0">_</tspan><tspan x="23.6667" y="22">hipi</tspan>_</text><path d="M2-4.03796e-06 2.00008 40-1.99992 40-2 4.03796e-06ZM8.07591e-05 40 10.0001 32 0.000104987 52-9.99994 32Z" fill="#151515" transform="matrix(1 0 0 -1 536 448)"/><text fill="#151515" font-family="Architects Daughter,Architects Daughter_MSFontService,sans-serif" font-style="oblique" font-weight="400" font-size="19" transform="translate(548.583 420)">yaksuri_hip</text><path d="M632 448C632 439.164 639.164 432 648 432L752 432C760.836 432 768 439.164 768 448L768 512C768 520.836 760.836 528 752 528L648 528C639.164 528 632 520.836 632 512Z" fill="#ECBCA3" fill-rule="evenodd"/><text fill="#151515" font-family="Architects Daughter,Architects Daughter_MSFontService,sans-serif" font-style="oblique" font-weight="400" font-size="19" transform="translate(652.343 474)">yaksuri<tspan x="78.8333" y="0">_</tspan><tspan x="28.5" y="22">l0i_</tspan></text><path d="M2-4.03796e-06 2.00008 40-1.99992 40-2 4.03796e-06ZM8.07591e-05 40 10.0001 32 0.000104987 52-9.99994 32Z" fill="#151515" transform="matrix(1 0 0 -1 704 448)"/><text fill="#151515" font-family="Architects Daughter,Architects Daughter_MSFontService,sans-serif" font-style="oblique" font-weight="400" font-size="19" transform="translate(713.416 420)">yaksuri_l0<tspan font-weight="700" x="-693.972" y="58">Backend </tspan><tspan font-weight="700" x="-688.305" y="80">Devices</tspan><tspan font-family="Arial,Arial_MSFontService,sans-serif" font-style="normal" x="72.1838" y="-220">Device Independent</tspan><tspan font-family="Arial,Arial_MSFontService,sans-serif" font-style="normal" x="72.1838" y="-197">Handles corner cases</tspan><tspan font-family="Arial,Arial_MSFontService,sans-serif" font-style="normal" x="72.1838" y="-90">Manages inter</tspan><tspan font-family="Arial,Arial_MSFontService,sans-serif" font-style="normal" x="190.017" y="-90">-</tspan><tspan font-family="Arial,Arial_MSFontService,sans-serif" font-style="normal" x="72.1838" y="-67">device interactions</tspan><tspan font-family="Arial,Arial_MSFontService,sans-serif" font-style="normal" x="84.1822" y="49">Device</tspan><tspan font-family="Arial,Arial_MSFontService,sans-serif" font-style="normal" x="141.182" y="49">-</tspan><tspan font-family="Arial,Arial_MSFontService,sans-serif" font-style="normal" x="147.349" y="49">specific </tspan><tspan font-family="Arial,Arial_MSFontService,sans-serif" font-style="normal" x="84.1822" y="72">fast</tspan><tspan font-family="Arial,Arial_MSFontService,sans-serif" font-style="normal" x="114.182" y="72">-</tspan><tspan font-family="Arial,Arial_MSFontService,sans-serif" font-style="normal" x="120.349" y="72">path code</tspan></text></g></svg>